<?xml version="1.0" standalone="no"?>
<!DOCTYPE svg PUBLIC "-//W3C//DTD SVG 20010904//EN"
 "http://www.w3.org/TR/2001/REC-SVG-20010904/DTD/svg10.dtd">
<svg version="1.0" xmlns="http://www.w3.org/2000/svg"
 width="250.000000pt" height="200.000000pt" viewBox="0 0 250.000000 200.000000"
 preserveAspectRatio="xMidYMid meet">
<metadata>
Created by potrace 1.16, written by Peter Selinger 2001-2019
</metadata>
<g transform="translate(0.000000,200.000000) scale(0.100000,-0.100000)"
fill="#000000" stroke="none">
<path d="M1130 1544 c-105 -23 -186 -68 -271 -153 -109 -109 -169 -247 -169
-391 0 -64 25 -172 54 -236 30 -64 42 -72 19 -11 -26 68 -24 273 5 363 53 171
191 306 357 350 59 16 182 18 244 3 57 -13 140 -54 186 -92 l37 -30 -37 -19
c-20 -11 -69 -25 -109 -33 -107 -21 -173 -49 -249 -106 -71 -53 -129 -122
-167 -197 -40 -82 6 -67 90 28 34 38 81 80 104 93 48 27 137 59 144 53 2 -3
-14 -31 -36 -63 -22 -32 -43 -75 -47 -95 -5 -33 -3 -38 14 -38 13 0 32 17 53
50 32 48 51 62 153 105 84 36 151 116 169 201 6 28 2 36 -54 87 -130 121 -313
170 -490 131z"/>
</g>
</svg>
